<?xml version="1.0" encoding="UTF-8"?>
<svg width="300px" height="67px" viewBox="0 0 300 67" version="1.1" xmlns="http://www.w3.org/2000/svg" xmlns:xlink="http://www.w3.org/1999/xlink">
    <!-- Generator: Sketch 52.4 (67378) - http://www.bohemiancoding.com/sketch -->
    <title>white on dark</title>
    <desc>Created with Sketch.</desc>
    <g id="white-on-dark" stroke="none" stroke-width="1" fill="none" fill-rule="evenodd">
        <rect fill="#2D2D2A" x="0" y="0" width="300" height="67"></rect>
        <path d="M258.077319,65 C256.257366,65 254.622408,64.2677446 253.174945,62.7943809 C251.723732,61.3336641 251,59.4935404 251,57.2879212 L251,0 L260.79975,0 L260.79975,55.0848315 L290.199,55.0848315 L290.199,25.339326 L265.699625,25.339326 L265.699625,15.4216281 L292.921431,15.4216281 C294.012653,15.4216281 295.100125,15.6960658 296.187597,16.2487353 C297.276319,16.7976107 298.176297,17.6272473 298.910028,18.7262627 C299.633759,19.8278076 300,21.1165266 300,22.5823021 L300,57.2879212 C300,59.4935404 299.270019,61.3336641 297.821306,62.7943809 C296.366343,64.2677446 294.733884,65 292.921431,65 L258.077319,65 Z M199.077139,66 C197.257232,66 195.623565,65.2615173 194.177389,63.7756237 C192.723713,62.3024846 192,60.4467119 192,58.2223356 L192,43.2231009 C192,41.0012754 192.723713,39.2462629 194.177389,37.9465844 C195.623565,36.6507321 197.257232,36.0015305 199.077139,36.0015305 L226.30075,36.0015305 L226.30075,45.9984695 L201.7995,45.9984695 L201.7995,56.0005102 L231.198,56.0005102 L231.198,26.0020407 L192,26.0020407 L192,16 L233.920361,16 C235.011556,16 236.10025,16.2767716 237.186445,16.8341411 C238.275139,17.3876843 239.180093,18.2243763 239.908806,19.3327381 C240.632519,20.4436508 241,21.7433294 241,23.2215703 L241,58.2223356 C241,60.4467119 240.268787,62.3024846 238.820111,63.7756237 C237.365185,65.2615173 235.732769,66 233.920361,66 L199.077139,66 Z M172,65 L172,0 L182,0 L182,65 L172,65 Z M130.950141,66 L121,66 L121,23.2215703 C121,20.9997449 121.736107,19.2447324 123.21086,17.9450538 C124.679268,16.6492016 126.338047,16 128.185931,16 L163,16 L163,26.0020407 L130.950141,26.0020407 L130.950141,66 Z M71.7972501,56.0005102 L101.1965,56.0005102 L101.1965,26.0020407 L71.7972501,26.0020407 L71.7972501,56.0005102 Z M69.0773195,66 C67.2548659,66 65.6211576,65.2602418 64.1749445,63.7756237 C62.7212316,62.3024846 62,60.4454365 62,58.2223356 L62,23.2215703 C62,20.9997449 62.7212316,19.2472833 64.1749445,17.9437784 C65.6211576,16.650477 67.2548659,16 69.0773195,16 L103.918931,16 C105.733884,16 107.367593,16.650477 108.821306,17.9437784 C110.267519,19.2472833 111,20.9997449 111,23.2215703 L111,58.2223356 C111,60.4454365 110.267519,62.3024846 108.821306,63.7756237 C107.367593,65.2602418 105.733884,66 103.918931,66 L69.0773195,66 Z M46.8538506,14 L54,20.5555371 L34.0773636,40.5608388 L54,59.8950321 L46.8538506,67 L26.9993689,47.5993231 L7.1486736,66.9987456 L0,59.8950321 L19.9226364,40.5595844 L0,20.5542827 L7.1486736,14.0012544 L27.0006311,33.5336442 L46.8538506,14 Z M26.9993746,47.6 L19.92,40.56 L26.9993746,33.53 L34.08,40.56 L26.9993746,47.6 Z" id="Fill-8" fill="#FFFFFF"></path>
    </g>
</svg>